<svg xmlns:xlink="http://www.w3.org/1999/xlink" xmlns="http://www.w3.org/2000/svg" width="1550" viewBox="0 0 1200 415" preserveAspectRatio="none" height="536" ><path fill="#DEE2E6" d="M5.68434189e-13,292.788567 C80.6666667,271.41188 159.333333,260.723537 236,260.723537 C421,260.723537 525,344.759008 670,273.729027 C788.879994,215.494242 940.849865,-5.02123357 1200,0.788566864 C1200,33.4552335 1200,171.525711 1200,415 L9.19819776e-13,414.788567 L5.68434189e-13,292.788567 Z" fill-opacity="0.32"></path><path fill="url(&quot;#divider-12440-bottom-overlay-layer-2&quot;)" d="M2.08355555e-12,332.788567 C80.6666667,284.745214 159.333333,260.723537 236,260.723537 C421,260.723537 525,344.759008 670,273.729027 C789.08369,215.39446 940.387018,21.5609115 1200,37.7885669 C1200,55.7885669 1200,181.525711 1200,415 L1.8189894e-12,414.788567 L2.08355555e-12,332.788567 Z"></path><path fill="#F8F9FA" d="M9.09494702e-13,373.771254 C80.6666667,298.406109 159.333333,260.723537 236,260.723537 C421,260.723537 525,344.759008 670,273.729027 C789.088175,215.392262 940.369069,48.85905 1200,74.7885669 C1200,148.788567 1200,262.192378 1200,415 L1.0227342e-12,414.788567 L9.09494702e-13,373.771254 Z"></path><defs><linearGradient id="divider-12440-bottom-overlay-layer-2" x1="0%" y1="0%" x2="100%" y2="0%"><stop offset="0%" stop-color="#e9ecef"></stop><stop offset="100%" stop-color="#dee2e6"></stop></linearGradient><linearGradient id="divider-12440-bottom-overlay-layer-2" x1="0%" y1="0%" x2="100%" y2="0%"><stop offset="0%" stop-color="#e9ecef"></stop><stop offset="100%" stop-color="#dee2e6"></stop></linearGradient></defs></svg>