<svg xmlns:xlink="http://www.w3.org/1999/xlink" xmlns="http://www.w3.org/2000/svg" width="1200" height="418" viewBox="0 0 1200 418" preserveAspectRatio="none"><g class="pix-waiting animated" data-anim-type="fade-in-up" data-anim-delay="400"><path fill="#FFFFFF" fill-opacity="0.2" d="M1.47792889e-12,296.788567 C80.6666667,248.745214 159.333333,224.723537 236,224.723537 C421,224.723537 525,308.759008 670,237.729027 C788.881547,179.493481 940.843675,-13.7136127 1200,1.78856686 C1200,27.1219002 1200,166.192378 1200,419 L1.82931448e-12,418.788567 L1.47792889e-12,296.788567 Z"></path></g><g class="pix-waiting animated" data-anim-type="fade-in-up" data-anim-delay="300"><path fill="#FFFFFF" d="M9.09494702e-13,337.771254 C80.6666667,275.739443 159.333333,244.723537 236,244.723537 C421,244.723537 525,328.759008 670,257.729027 C788.990736,199.439994 940.758806,19.0693429 1200,39.7885669 C1200,64.4552335 1200,190.859045 1200,419 L1.87683202e-12,418.788567 L9.09494702e-13,337.771254 Z" fill-opacity="0.8"></path></g><path fill="#FFFFFF" d="M1.13686838e-12,377.771254 C80.6666667,302.406109 159.333333,264.723537 236,264.723537 C421,264.723537 525,348.759008 670,277.729027 C789.052388,219.409793 940.512256,52.9826245 1200,78.7885669 C1200,114.1219 1200,227.525711 1200,419 L1.25010787e-12,418.788567 L1.13686838e-12,377.771254 Z"></path><defs></defs></svg>